<svg width="158" height="28" viewBox="0 0 158 28" fill="none" xmlns="http://www.w3.org/2000/svg">
<path d="M3.75825 3.58622C3.24157 4.04636 2.75209 4.56064 2.31699 5.07492C2.7249 4.56064 3.21438 4.04636 3.75825 3.58622ZM21.2165 8.13352C19.2314 7.1591 17.1375 6.69895 14.826 6.86136C12.3786 7.02376 10.5566 8.32299 10.611 9.91996C10.747 13.547 15.5602 11.2733 18.2524 14.6838C21.2165 18.1755 18.198 24.9152 9.0066 23.8596C5.66179 23.4807 2.75209 22.1273 0.658189 19.9348C0.576608 19.8536 0.440641 19.9348 0.495028 20.0431C2.6977 25.4566 12.1067 31.2219 20.6454 25.7543C28.6131 20.6386 27.471 11.4357 21.2165 8.13352ZM5.03634 19.8266C7.02147 20.801 9.11537 21.2611 11.4268 21.0987C13.8742 20.9363 15.6962 19.6371 15.6418 18.0401C15.5058 14.4131 10.6926 16.6868 8.00044 13.2763C5.06354 9.78462 8.08202 3.04487 17.2734 4.1005C20.6182 4.47944 23.5279 5.8328 25.6218 8.02525C25.7034 8.10645 25.8394 8.02525 25.785 7.91698C23.5823 2.50353 14.1734 -3.2618 5.6346 2.20579C-2.36029 7.29443 -1.19097 16.4973 5.03634 19.8266Z" fill="url(#paint0_linear)"/>
<path d="M44.44 8.05188C45.3646 8.05188 46.398 8.16015 47.5129 8.43082V9.81125C46.6699 9.56765 45.555 9.35111 44.6576 9.35111C42.183 9.35111 40.5514 10.6503 40.5514 14.1691C40.5514 17.7961 42.3461 19.0953 44.576 19.0953C45.5006 19.0953 46.5883 18.9059 47.5673 18.581V19.9344C46.5067 20.2592 45.3374 20.3946 44.4672 20.3946C40.7417 20.3946 39.0557 18.0126 39.0557 14.1962C39.0557 10.4609 40.8233 8.05188 44.44 8.05188Z" fill="white"/>
<path d="M55.5077 14.9538V13.9794C55.5077 12.9508 54.9367 12.2471 53.3595 12.2471C52.5708 12.2471 51.3471 12.4095 50.3682 12.6531V11.408C51.4015 11.1644 52.7612 11.0291 53.6586 11.0291C55.6981 11.0291 56.9218 12.0305 56.9218 14.0606V20.2049H55.6981L55.5893 19.068C54.5288 19.7988 53.4682 20.2861 52.3805 20.2861C50.8848 20.2861 49.5796 19.5011 49.5796 17.6605C49.5796 15.8741 50.8577 14.9267 52.7884 14.9267H55.5077V14.9538ZM55.5077 16.0094H52.9787C51.6735 16.0094 51.048 16.5778 51.048 17.5793C51.048 18.635 51.755 19.1492 52.8156 19.1492C53.713 19.1492 54.8007 18.635 55.5077 18.0665V16.0094Z" fill="white"/>
<path d="M64.9166 12.6535C63.6385 12.843 62.6868 13.3572 61.3543 14.061V20.2053H59.9402V11.246H61.2999V12.843C62.3604 12.1663 63.421 11.3001 64.8894 11.1648V12.6535H64.9166Z" fill="white"/>
<path d="M72.2046 11.2457V12.4637H69.322V18.0937C69.322 18.8787 69.8659 19.1223 70.4914 19.1223C70.9537 19.1223 71.4703 19.014 71.8782 18.8787V20.1238C71.2528 20.2321 70.4642 20.3674 69.8387 20.3674C68.7782 20.3674 67.908 20.0155 67.908 18.4185V12.4637H66.6299V11.5705L66.929 11.2457H67.908V10.163L68.751 9.29688H69.322V11.2728H72.2046V11.2457Z" fill="white"/>
<path d="M81.4774 19.8259C80.3353 20.2049 79.3563 20.3943 78.0782 20.3943C75.2229 20.3943 73.7001 18.9868 73.7001 15.6846C73.7001 12.6531 75.1413 11.0291 77.8607 11.0291C81.0151 11.0291 81.6678 13.1944 81.6678 15.4139V16.0906H75.1685C75.1957 18.2831 76.365 19.1222 78.3774 19.1222C79.3291 19.1222 80.5257 18.8786 81.4774 18.5538V19.8259ZM80.1993 15.035C80.1993 13.7358 79.873 12.1929 77.7791 12.1929C75.9843 12.1929 75.1413 13.411 75.1413 15.035H80.1993Z" fill="white"/>
<path d="M89.3093 12.6535C88.0312 12.843 87.0794 13.3572 85.7469 14.061V20.2053H84.3329V11.246H85.6925V12.843C86.7531 12.1663 87.8136 11.3001 89.2821 11.1648V12.6535H89.3093Z" fill="white"/>
<path d="M93.8505 11.0832H93.7417V20.2049H91.4303V8.26819H95.3189L98.0111 17.5252H98.0927L100.758 8.26819H104.565V20.2049H102.253V11.0832H102.117L99.3436 20.2319H96.5426L93.8505 11.0832Z" fill="white"/>
<path d="M112.451 14.6563V14.0608C112.451 13.33 111.989 12.8428 110.547 12.8428C109.786 12.8428 108.453 13.0052 107.583 13.2488V11.3C108.725 11.0564 110.139 10.921 111.146 10.921C113.43 10.921 114.844 12.0037 114.844 14.2232V20.2051H112.832L112.668 19.2577H112.614C111.635 19.9615 110.656 20.3404 109.704 20.3404C108.127 20.3404 106.849 19.366 106.849 17.4442C106.849 15.739 108.1 14.6563 110.33 14.6563H112.451ZM112.451 16.1991H110.683C109.65 16.1991 109.188 16.5781 109.188 17.2548C109.188 18.0126 109.731 18.3916 110.466 18.3916C111.173 18.3916 111.934 18.1209 112.478 17.769V16.1991H112.451Z" fill="white"/>
<path d="M121.642 10.9213C122.105 10.9213 122.621 10.9754 123.138 11.0295V7.53784H125.477V20.2053H123.546C123.519 20.1512 123.356 19.664 123.328 19.6098C122.458 20.0971 121.534 20.3677 120.582 20.3677C118.705 20.3677 116.938 19.1768 116.938 15.9016C116.965 12.0851 119.005 10.9213 121.642 10.9213ZM121.153 18.3918C121.724 18.3918 122.404 18.1753 123.111 17.8234V12.9784C122.649 12.8972 122.268 12.8701 121.887 12.8701C120.147 12.8701 119.358 13.7092 119.358 15.7934C119.358 17.5798 120.038 18.3918 121.153 18.3918Z" fill="white"/>
<path d="M132.357 10.9213C132.819 10.9213 133.336 10.9754 133.852 11.0295V7.53784H136.191V20.2053H134.26C134.233 20.1512 134.07 19.664 134.043 19.6098C133.172 20.0971 132.248 20.3677 131.296 20.3677C129.42 20.3677 127.652 19.1768 127.652 15.9016C127.679 12.0851 129.719 10.9213 132.357 10.9213ZM131.867 18.3918C132.438 18.3918 133.118 18.1753 133.825 17.8234V12.9784C133.363 12.8972 132.982 12.8701 132.601 12.8701C130.861 12.8701 130.072 13.7092 130.072 15.7934C130.072 17.5798 130.752 18.3918 131.867 18.3918Z" fill="white"/>
<path d="M142.962 20.3946C140.351 20.3946 138.339 18.96 138.339 15.6578C138.339 12.3556 140.379 10.921 142.962 10.921C145.573 10.921 147.612 12.4097 147.612 15.6578C147.612 18.9329 145.6 20.3946 142.962 20.3946ZM142.989 12.924C141.412 12.924 140.732 13.9255 140.732 15.6578C140.732 17.4172 141.412 18.4187 142.989 18.4187C144.566 18.4187 145.219 17.4172 145.219 15.6578C145.219 13.9255 144.566 12.924 142.989 12.924Z" fill="white"/>
<path d="M148.455 11.1104H151.392L153.268 13.79L155.09 11.1104H158L154.71 15.5223L158 20.205H155.172L153.187 17.3088L151.229 20.205H148.401L151.691 15.6306L148.455 11.1104Z" fill="white"/>
<defs>
<linearGradient id="paint0_linear" x1="19.0674" y1="26.634" x2="7.29527" y2="1.27077" gradientUnits="userSpaceOnUse">
<stop stop-color="#30E650"/>
<stop offset="0.6" stop-color="#9FED26"/>
<stop offset="1" stop-color="#A2F81C"/>
</linearGradient>
</defs>
</svg>
