<svg width="151" height="17" viewBox="0 0 151 17" fill="none" xmlns="http://www.w3.org/2000/svg">
<path d="M7.25308 1.12988C8.42343 1.12988 9.73147 1.26663 11.1428 1.60849V3.352C10.0757 3.04432 8.66439 2.77083 7.52846 2.77083C4.39604 2.77083 2.33072 4.41178 2.33072 8.85602C2.33072 13.437 4.60257 15.078 7.42519 15.078C8.59554 15.078 9.97243 14.8386 11.2116 14.4284V16.1377C9.86916 16.548 8.38901 16.7189 7.2875 16.7189C2.57167 16.7189 0.4375 13.7105 0.4375 8.89021C0.4375 4.17248 2.67493 1.12988 7.25308 1.12988Z" fill="white"/>
<path d="M21.2629 9.84667V8.61596C21.2629 7.31688 20.5401 6.42803 18.5436 6.42803C17.5453 6.42803 15.9964 6.63315 14.7572 6.94083V5.36826C16.0652 5.06058 17.7863 4.88965 18.9222 4.88965C21.5039 4.88965 23.0529 6.15454 23.0529 8.71852V16.4788H21.5039L21.3662 15.043C20.0237 15.966 18.6813 16.5814 17.3044 16.5814C15.4112 16.5814 13.7589 15.59 13.7589 13.2653C13.7589 11.009 15.3768 9.81248 17.8207 9.81248H21.2629V9.84667ZM21.2629 11.1799H18.0617C16.4094 11.1799 15.6177 11.8979 15.6177 13.1627C15.6177 14.496 16.5127 15.1456 17.8551 15.1456C18.9911 15.1456 20.368 14.496 21.2629 13.7781V11.1799Z" fill="white"/>
<path d="M33.173 6.9408C31.5552 7.1801 30.3504 7.82965 28.6637 8.71849V16.4788H26.8738V5.16311H28.5949V7.1801C29.9374 6.32544 31.2798 5.23148 33.1386 5.06055V6.9408H33.173Z" fill="white"/>
<path d="M42.3981 5.16357V6.70196H38.7493V13.8127C38.7493 14.8041 39.4378 15.1118 40.2295 15.1118C40.8147 15.1118 41.4687 14.9751 41.985 14.8041V16.3767C41.1933 16.5135 40.1951 16.6844 39.4034 16.6844C38.0609 16.6844 36.9594 16.24 36.9594 14.223V6.70196H35.3416V5.5738L35.7202 5.16357H36.9594V3.79611L38.0265 2.70215H38.7493V5.19775H42.3981V5.16357Z" fill="white"/>
<path d="M54.1361 16.0002C52.6904 16.4788 51.4512 16.7181 49.8334 16.7181C46.219 16.7181 44.2914 14.9405 44.2914 10.7697C44.2914 6.94083 46.1158 4.88965 49.558 4.88965C53.551 4.88965 54.3771 7.62456 54.3771 10.4278V11.2825H46.1502C46.1846 14.0516 47.6648 15.1114 50.212 15.1114C51.4168 15.1114 52.9314 14.8037 54.1361 14.3935V16.0002ZM52.5183 9.94924C52.5183 8.30829 52.1052 6.35966 49.4547 6.35966C47.1828 6.35966 46.1158 7.89805 46.1158 9.94924H52.5183Z" fill="white"/>
<path d="M64.0496 6.9408C62.4318 7.1801 61.227 7.82965 59.5403 8.71849V16.4788H57.7504V5.16311H59.4715V7.1801C60.8139 6.32544 62.1564 5.23148 64.0152 5.06055V6.9408H64.0496Z" fill="white"/>
<path d="M69.7982 4.95871H69.6605V16.4795H66.7346V1.40332H71.657L75.0648 13.0951H75.168L78.5414 1.40332H83.3605V16.4795H80.4346V4.95871H80.2625L76.7515 16.5137H73.206L69.7982 4.95871Z" fill="white"/>
<path d="M93.3429 9.47067V8.71857C93.3429 7.79553 92.7577 7.18017 90.9334 7.18017C89.9695 7.18017 88.2829 7.38529 87.1814 7.69297V5.23154C88.6271 4.92386 90.417 4.75293 91.6907 4.75293C94.5821 4.75293 96.3721 6.12039 96.3721 8.92369V16.4789H93.8248L93.6183 15.2824H93.5494C92.3103 16.1712 91.0711 16.6498 89.8663 16.6498C87.8698 16.6498 86.252 15.4191 86.252 12.9919C86.252 10.8381 87.8354 9.47067 90.658 9.47067H93.3429ZM93.3429 11.4193H91.1055C89.7974 11.4193 89.2123 11.8979 89.2123 12.7526C89.2123 13.7098 89.9007 14.1884 90.8301 14.1884C91.7251 14.1884 92.6889 13.8465 93.3773 13.4021V11.4193H93.3429Z" fill="white"/>
<path d="M104.978 4.75377C105.563 4.75377 106.217 4.82215 106.871 4.89052V0.480469H109.831V16.4797H107.387C107.353 16.4114 107.146 15.796 107.112 15.7276C106.01 16.343 104.84 16.6848 103.635 16.6848C101.26 16.6848 99.0226 15.1806 99.0226 11.0441C99.057 6.22379 101.639 4.75377 104.978 4.75377ZM104.358 14.1892C105.081 14.1892 105.941 13.9157 106.836 13.4713V7.35194C106.251 7.24938 105.769 7.2152 105.287 7.2152C103.084 7.2152 102.086 8.27498 102.086 10.9073C102.086 13.1636 102.947 14.1892 104.358 14.1892Z" fill="white"/>
<path d="M118.54 4.75377C119.125 4.75377 119.779 4.82215 120.433 4.89052V0.480469H123.394V16.4797H120.95C120.915 16.4114 120.709 15.796 120.674 15.7276C119.573 16.343 118.402 16.6848 117.198 16.6848C114.822 16.6848 112.585 15.1806 112.585 11.0441C112.619 6.22379 115.201 4.75377 118.54 4.75377ZM117.92 14.1892C118.643 14.1892 119.504 13.9157 120.399 13.4713V7.35194C119.814 7.24938 119.332 7.2152 118.85 7.2152C116.647 7.2152 115.649 8.27498 115.649 10.9073C115.649 13.1636 116.509 14.1892 117.92 14.1892Z" fill="white"/>
<path d="M131.965 16.7182C128.66 16.7182 126.113 14.9063 126.113 10.7356C126.113 6.56481 128.695 4.75293 131.965 4.75293C135.269 4.75293 137.851 6.63318 137.851 10.7356C137.851 14.8721 135.304 16.7182 131.965 16.7182ZM131.999 7.28272C130.003 7.28272 129.142 8.54762 129.142 10.7356C129.142 12.9577 130.003 14.2226 131.999 14.2226C133.996 14.2226 134.822 12.9577 134.822 10.7356C134.822 8.54762 133.996 7.28272 131.999 7.28272Z" fill="white"/>
<path d="M138.918 4.99219H142.635L145.011 8.37665L147.317 4.99219H151L146.835 10.5646L151 16.4788H147.42L144.907 12.8209L142.429 16.4788H138.849L143.014 10.7013L138.918 4.99219Z" fill="white"/>
</svg>
